<?xml version="1.0" encoding="UTF-8"?>
<svg version="1.1" xmlns="http://www.w3.org/2000/svg" width="1024" height="1024">
<path d="M0 0 C337.92 0 675.84 0 1024 0 C1024 337.92 1024 675.84 1024 1024 C686.08 1024 348.16 1024 0 1024 C0 686.08 0 348.16 0 0 Z " fill="#FCFDFD" transform="translate(0,0)"/>
<path d="M0 0 C1.31752767 0.37823407 2.6351965 0.75597749 3.953125 1.1328125 C24.7944419 7.40496237 44.75202864 15.83003861 64.18408203 25.58886719 C66.72684164 26.86311294 69.28111293 28.10983333 71.83984375 29.3515625 C100.87920398 43.73166013 128.6912044 64.42845302 151.4309082 87.44018555 C153.209369 89.2081311 155.07052871 90.83653783 157 92.4375 C160.28559014 95.27875318 163.10693638 98.28301444 165.90625 101.59765625 C167.53639659 103.46806699 169.19119118 105.26841887 170.90625 107.05859375 C178.45799635 114.95750732 185.16454594 123.18576843 191.56787109 132.03710938 C192.93604641 133.91234456 194.33067163 135.76362853 195.73828125 137.609375 C242.84838611 199.73577255 266.1564723 276.56088683 266.3125 353.9375 C266.31626648 354.9669574 266.32003296 355.99641479 266.32391357 357.05706787 C266.34909345 370.6295614 265.73072552 384.00706341 264.26950073 397.50192261 C264.01711702 399.84133761 263.78396576 402.18188631 263.55493164 404.52368164 C262.50242655 414.81071562 260.55201897 424.80050083 258.25 434.875 C258.07226044 435.66258698 257.89452087 436.45017395 257.71139526 437.2616272 C255.23213438 448.21910331 252.60488122 459.04937073 248.83349609 469.64550781 C247.87765372 472.34560853 246.96569634 475.05920412 246.05078125 477.7734375 C233.5276459 514.31480354 215.24261885 548.19225258 192 579 C191.52320801 579.63518555 191.04641602 580.27037109 190.55517578 580.92480469 C184.31244547 589.19746025 177.60343233 596.88879753 170.48632812 604.41650391 C168.51806915 606.51343684 166.58488393 608.64111612 164.65161133 610.77026367 C157.48447373 618.65648701 150.09418141 626.06785454 142 633 C140.98113501 633.89380698 139.96295982 634.78840063 138.9453125 635.68359375 C116.16163566 655.62426971 90.97288353 672.27987114 64 686 C62.60346191 686.71663818 62.60346191 686.71663818 61.17871094 687.44775391 C21.82321081 707.48491493 -19.49983441 717.62239912 -63 724 C-64.01964844 724.176521 -65.03929687 724.35304199 -66.08984375 724.53491211 C-71.30078262 725.15471971 -76.45181505 725.18163173 -81.6953125 725.203125 C-82.82775894 725.21022995 -83.96020538 725.2173349 -85.12696838 725.22465515 C-133.24576883 725.45760976 -133.24576883 725.45760976 -154 722 C-154.67730164 721.88829468 -155.35460327 721.77658936 -156.0524292 721.66149902 C-176.79761688 718.2156941 -197.02542916 713.66359729 -217 707 C-217.95471191 706.68450195 -218.90942383 706.36900391 -219.89306641 706.04394531 C-267.20416719 690.19969327 -310.35537212 663.70052957 -347 630 C-348.64556862 628.54136797 -350.29140772 627.08304105 -351.9375 625.625 C-359.47391521 618.83511648 -366.70190203 611.7198179 -373.28125 603.9921875 C-374.48347961 602.59869409 -375.71547441 601.2305811 -376.96875 599.8828125 C-392.80348094 582.84326508 -406.46364624 563.16841531 -418 543 C-418.38865234 542.32952637 -418.77730469 541.65905273 -419.17773438 540.96826172 C-443.78140258 498.42689499 -460.00121895 451.86152379 -466 403 C-466.10296387 402.19449707 -466.20592773 401.38899414 -466.31201172 400.55908203 C-478.21133819 302.18755691 -450.40316725 203.84896145 -389.41015625 125.99609375 C-376.6186504 110.09482149 -362.92538255 94.33038587 -347.38671875 81.05078125 C-345.51493741 79.4424585 -343.66970346 77.81458782 -341.83203125 76.16796875 C-327.55870336 63.4633326 -312.10572724 52.26740111 -296 42 C-294.906875 41.30003906 -293.81375 40.60007813 -292.6875 39.87890625 C-256.76164984 17.39350183 -216.47354535 1.55616671 -175 -7 C-174.06736328 -7.19287598 -173.13472656 -7.38575195 -172.17382812 -7.58447266 C-115.44285055 -19.00033779 -55.45455711 -16.58661182 0 0 Z " fill="#FCFCFC" transform="translate(613,153)"/>
<path d="M0 0 C1.31752767 0.37823407 2.6351965 0.75597749 3.953125 1.1328125 C24.7944419 7.40496237 44.75202864 15.83003861 64.18408203 25.58886719 C66.72684164 26.86311294 69.28111293 28.10983333 71.83984375 29.3515625 C100.87920398 43.73166013 128.6912044 64.42845302 151.4309082 87.44018555 C153.209369 89.2081311 155.07052871 90.83653783 157 92.4375 C160.28559014 95.27875318 163.10693638 98.28301444 165.90625 101.59765625 C167.53639659 103.46806699 169.19119118 105.26841887 170.90625 107.05859375 C178.45799635 114.95750732 185.16454594 123.18576843 191.56787109 132.03710938 C192.93604641 133.91234456 194.33067163 135.76362853 195.73828125 137.609375 C242.84838611 199.73577255 266.1564723 276.56088683 266.3125 353.9375 C266.31626648 354.9669574 266.32003296 355.99641479 266.32391357 357.05706787 C266.34909345 370.6295614 265.73072552 384.00706341 264.26950073 397.50192261 C264.01711702 399.84133761 263.78396576 402.18188631 263.55493164 404.52368164 C262.50242655 414.81071562 260.55201897 424.80050083 258.25 434.875 C258.07226044 435.66258698 257.89452087 436.45017395 257.71139526 437.2616272 C255.23213438 448.21910331 252.60488122 459.04937073 248.83349609 469.64550781 C247.87765372 472.34560853 246.96569634 475.05920412 246.05078125 477.7734375 C233.5276459 514.31480354 215.24261885 548.19225258 192 579 C191.52320801 579.63518555 191.04641602 580.27037109 190.55517578 580.92480469 C184.31244547 589.19746025 177.60343233 596.88879753 170.48632812 604.41650391 C168.51806915 606.51343684 166.58488393 608.64111612 164.65161133 610.77026367 C157.48447373 618.65648701 150.09418141 626.06785454 142 633 C140.98113501 633.89380698 139.96295982 634.78840063 138.9453125 635.68359375 C116.16163566 655.62426971 90.97288353 672.27987114 64 686 C62.60346191 686.71663818 62.60346191 686.71663818 61.17871094 687.44775391 C21.82321081 707.48491493 -19.49983441 717.62239912 -63 724 C-64.01964844 724.176521 -65.03929687 724.35304199 -66.08984375 724.53491211 C-71.30078262 725.15471971 -76.45181505 725.18163173 -81.6953125 725.203125 C-82.82775894 725.21022995 -83.96020538 725.2173349 -85.12696838 725.22465515 C-133.24576883 725.45760976 -133.24576883 725.45760976 -154 722 C-154.67730164 721.88829468 -155.35460327 721.77658936 -156.0524292 721.66149902 C-176.79761688 718.2156941 -197.02542916 713.66359729 -217 707 C-217.95471191 706.68450195 -218.90942383 706.36900391 -219.89306641 706.04394531 C-267.20416719 690.19969327 -310.35537212 663.70052957 -347 630 C-348.64556862 628.54136797 -350.29140772 627.08304105 -351.9375 625.625 C-359.47391521 618.83511648 -366.70190203 611.7198179 -373.28125 603.9921875 C-374.48347961 602.59869409 -375.71547441 601.2305811 -376.96875 599.8828125 C-392.80348094 582.84326508 -406.46364624 563.16841531 -418 543 C-418.38865234 542.32952637 -418.77730469 541.65905273 -419.17773438 540.96826172 C-443.78140258 498.42689499 -460.00121895 451.86152379 -466 403 C-466.10296387 402.19449707 -466.20592773 401.38899414 -466.31201172 400.55908203 C-478.21133819 302.18755691 -450.40316725 203.84896145 -389.41015625 125.99609375 C-376.6186504 110.09482149 -362.92538255 94.33038587 -347.38671875 81.05078125 C-345.51493741 79.4424585 -343.66970346 77.81458782 -341.83203125 76.16796875 C-327.55870336 63.4633326 -312.10572724 52.26740111 -296 42 C-294.906875 41.30003906 -293.81375 40.60007813 -292.6875 39.87890625 C-256.76164984 17.39350183 -216.47354535 1.55616671 -175 -7 C-174.06736328 -7.19287598 -173.13472656 -7.38575195 -172.17382812 -7.58447266 C-115.44285055 -19.00033779 -55.45455711 -16.58661182 0 0 Z M-159 10 C-160.76150068 10.3396745 -162.52321318 10.67825276 -164.28515625 11.015625 C-168.16174573 11.77973494 -172.01537514 12.61826942 -175.86474609 13.50878906 C-177.99631273 13.99915175 -180.13197366 14.46621524 -182.26953125 14.9296875 C-236.96277826 27.01454229 -290.34239662 55.31927659 -331.3046875 93.515625 C-333.4271854 95.47201437 -335.57601505 97.3662845 -337.76171875 99.25 C-349.13413699 109.16948364 -359.77279303 120.0609152 -369 132 C-369.89916042 133.10156444 -370.80173602 134.20034675 -371.70703125 135.296875 C-385.27090161 151.79695091 -396.76691236 169.26742134 -407 188 C-407.79784444 189.43117507 -408.59600316 190.86217501 -409.39453125 192.29296875 C-419.8733989 211.30799263 -427.53246384 231.31432984 -434 252 C-434.33217529 253.03592285 -434.66435059 254.0718457 -435.0065918 255.13916016 C-437.40826402 262.73124908 -439.36787183 270.34604418 -441.0625 278.125 C-441.44873535 279.89085449 -441.44873535 279.89085449 -441.84277344 281.69238281 C-443.93617793 291.42180521 -445.76502798 301.12434725 -447 311 C-447.1544458 312.1770752 -447.1544458 312.1770752 -447.31201172 313.37792969 C-450.97199518 342.48433845 -450.41959834 373.03325149 -446 402 C-445.82307617 403.21187988 -445.64615234 404.42375977 -445.46386719 405.67236328 C-442.99181653 422.42381538 -439.70511734 438.73486767 -435 455 C-434.63146493 456.32941447 -434.26297142 457.65884047 -433.89453125 458.98828125 C-422.23567897 498.84724553 -402.34686717 536.23371873 -377 569 C-376.26265625 569.9590625 -375.5253125 570.918125 -374.765625 571.90625 C-372.88129019 574.30449431 -370.950615 576.65543726 -369 579 C-368.23945313 579.94488281 -367.47890625 580.88976562 -366.6953125 581.86328125 C-359.91950913 590.13619755 -352.47474313 597.74020666 -344.9375 605.3125 C-344.17771851 606.08004608 -344.17771851 606.08004608 -343.40258789 606.86309814 C-336.60480153 613.71556355 -329.56253752 619.98399063 -322 626 C-320.71722228 627.07189742 -319.4381084 628.14820732 -318.1640625 629.23046875 C-302.07561156 642.74629273 -284.36962018 653.86212175 -266 664 C-265.22978516 664.42764648 -264.45957031 664.85529297 -263.66601562 665.29589844 C-230.76670162 683.44961347 -195.35784761 695.10320271 -158.375 701.3125 C-157.60786682 701.44191986 -156.84073364 701.57133972 -156.050354 701.7046814 C-139.3218417 704.4974015 -122.96285533 705.18650713 -106.01098633 705.18530273 C-102.60159545 705.18747509 -99.19253644 705.20564263 -95.78320312 705.22460938 C-77.23886313 705.2732652 -58.8980723 704.26847655 -40.625 700.9375 C-39.47346436 700.72834961 -38.32192871 700.51919922 -37.13549805 700.30371094 C-22.49501562 697.5008607 -8.22290371 693.4199778 6 689 C7.09376953 688.6601709 8.18753906 688.3203418 9.31445312 687.97021484 C35.03796777 679.77700866 60.14166387 667.33065286 83 653 C84.06992187 652.33097656 85.13984375 651.66195312 86.2421875 650.97265625 C101.62705752 640.99493551 116.14996366 629.44524051 129.68359375 617.09765625 C131.67524817 615.29408387 133.70021857 613.54893904 135.75 611.8125 C144.79707772 603.92624895 153.29141593 595.19166736 161 586 C161.79277344 585.09636719 162.58554687 584.19273437 163.40234375 583.26171875 C171.23066274 574.28824654 178.18432701 564.75701259 185 555 C185.44730469 554.36336426 185.89460937 553.72672852 186.35546875 553.07080078 C212.78877402 515.24067427 230.87232584 471.18249363 240 426 C240.1645166 425.20400391 240.3290332 424.40800781 240.49853516 423.58789062 C249.44686235 379.40814589 249.76856808 333.22532975 241 289 C240.83806152 288.15550293 240.67612305 287.31100586 240.50927734 286.44091797 C228.60472881 225.07148635 199.25635094 165.38251057 156 120 C154.84603925 118.67369446 153.69943426 117.34092964 152.5625 116 C146.02285518 108.46997628 138.82341251 101.33430898 131.21875 94.8828125 C129.47077099 93.39949228 127.74644641 91.8882959 126.03125 90.3671875 C116.81840784 82.23669512 107.07888188 75.01783747 97 68 C96.36481445 67.55414551 95.72962891 67.10829102 95.07519531 66.64892578 C70.08543732 49.18563708 41.96695251 34.57803874 13 25 C12.32622314 24.76901611 11.65244629 24.53803223 10.95825195 24.30004883 C-6.96975195 18.19189841 -25.3141196 13.12826755 -44 10 C-44.84530273 9.85723633 -45.69060547 9.71447266 -46.56152344 9.56738281 C-49.16404544 9.13540881 -51.76843634 8.71934065 -54.375 8.3125 C-55.13490234 8.19285889 -55.89480469 8.07321777 -56.67773438 7.94995117 C-72.23928577 5.65532121 -87.9308452 5.72074629 -103.625 5.6875 C-105.39662506 5.68357239 -105.39662506 5.68357239 -107.20404053 5.67956543 C-124.853938 5.6753717 -141.67793601 6.40432645 -159 10 Z " fill="#183A73" transform="translate(613,153)"/>
<path d="M0 0 C2.61779136 0.65148057 5.23598013 1.30075038 7.85546875 1.9453125 C8.85306717 2.19139252 8.85306717 2.19139252 9.87081909 2.44244385 C16.48804781 4.06296095 23.1439078 5.48221377 29.8125 6.875 C40.57836632 9.13329834 51.26379346 11.64396309 61.94604492 14.26733398 C70.31026249 16.30759296 78.69916932 18.17019307 87.125 19.9375 C98.74384534 22.37852943 110.268735 25.10329016 121.75488281 28.10742188 C124.00061017 28.6711848 126.25711057 29.19247173 128.51855469 29.68945312 C137.80223242 31.76345101 145.98102441 34.88367402 154.49447632 39.10110474 C158.13844209 40.90526168 161.80720456 42.65799276 165.47265625 44.41796875 C166.23149612 44.78385605 166.990336 45.14974335 167.77217102 45.52671814 C177.16479599 50.03833083 186.7003613 54.22565897 196.23693848 58.42175293 C197.68811245 59.06026948 199.13908708 59.69923931 200.58985901 60.33866882 C201.88996912 60.91126102 203.19075529 61.48232342 204.49253845 62.05110168 C211.66022838 65.20303322 218.7105445 68.5607541 225.8125 71.875 C225.8125 91.675 225.8125 111.475 225.8125 131.875 C230.7625 131.875 235.7125 131.875 240.8125 131.875 C240.8125 133.525 240.8125 135.175 240.8125 136.875 C239.03524515 138.65225485 236.44346763 138.00048582 234.03875732 138.00084114 C232.77639378 138.00344889 231.51403023 138.00605664 230.21341324 138.00874341 C228.79429358 138.00658088 227.37517406 138.0043242 225.95605469 138.00198364 C224.46272621 138.00313448 222.96939801 138.00472175 221.4760704 138.00671089 C217.35288304 138.01090937 213.22971863 138.0088112 209.10653114 138.00572467 C204.66749537 138.00347289 200.22846369 138.00694907 195.78942871 138.00970459 C187.08560478 138.01416367 178.38178944 138.01318521 169.67796516 138.01029195 C162.60753432 138.00803845 155.5371059 138.00772516 148.4666748 138.00881577 C147.46241825 138.008969 146.45816169 138.00912223 145.42347312 138.00928011 C143.38368638 138.00959982 141.34389965 138.00992403 139.30411291 138.0102527 C120.15300708 138.01310789 101.00190603 138.00981985 81.85080099 138.00445233 C65.39922952 137.99998426 48.9476651 138.00076018 32.49609375 138.00537109 C13.41601063 138.01071616 -5.6640683 138.0128332 -24.74415207 138.00975883 C-26.77665965 138.00944026 -28.80916723 138.00912589 -30.8416748 138.00881577 C-31.84184702 138.00866149 -32.84201924 138.00850721 -33.8724997 138.00834826 C-40.93880453 138.0074829 -48.00510671 138.00894639 -55.07141113 138.01129532 C-63.6766029 138.01409277 -72.28178553 138.01335623 -80.88697624 138.00801457 C-85.28194049 138.00537681 -89.67688949 138.00437375 -94.07185364 138.00766373 C-98.08852808 138.01062516 -102.10517303 138.00903645 -106.12184477 138.00368617 C-107.58144587 138.00256133 -109.04104942 138.00315464 -110.50064898 138.00556196 C-112.47168343 138.00856553 -114.44272479 138.00491283 -116.41375732 138.00084114 C-117.51250561 138.00067879 -118.61125389 138.00051644 -119.74329758 138.00034916 C-122.1875 137.875 -122.1875 137.875 -123.1875 136.875 C-123.3125 134.375 -123.3125 134.375 -123.1875 131.875 C-122.1875 130.875 -122.1875 130.875 -119.02734375 130.77734375 C-117.09568359 130.79474609 -117.09568359 130.79474609 -115.125 130.8125 C-113.83464844 130.82152344 -112.54429687 130.83054687 -111.21484375 130.83984375 C-109.71630859 130.85724609 -109.71630859 130.85724609 -108.1875 130.875 C-108.22969162 129.89940125 -108.27188324 128.92380249 -108.31535339 127.91864014 C-108.70208531 118.68217981 -108.98602455 109.44737654 -109.17193127 100.20463181 C-109.27074449 95.45295423 -109.40443003 90.70785144 -109.62084961 85.95996094 C-110.97459959 55.45733902 -110.97459959 55.45733902 -106.48486328 48.07565308 C-102.22227239 43.80283207 -97.28165175 41.66765677 -91.62820435 39.75811768 C-88.06471477 38.46874372 -85.09327546 36.51627421 -81.9453125 34.44140625 C-79.73531128 33.10522103 -77.52437349 31.77058364 -75.3125 30.4375 C-72.89761117 28.97792591 -70.48376573 27.51663401 -68.0703125 26.0546875 C-67.48123108 25.69793442 -66.89214966 25.34118134 -66.28521729 24.97361755 C-60.89655408 21.70628097 -55.53957957 18.38927632 -50.1875 15.0625 C-48.51840722 14.03096185 -46.84913861 12.99970813 -45.1796875 11.96875 C-41.67181136 9.80150771 -38.18144084 7.60827396 -34.6953125 5.40625 C-32.90144888 4.29101139 -31.1071912 3.17640633 -29.3125 2.0625 C-28.4978125 1.54002686 -27.683125 1.01755371 -26.84375 0.47924805 C-17.52661106 -5.24950701 -10.11191415 -2.58290547 0 0 Z " fill="#0F0F0F" transform="translate(461.1875,574.125)"/>
<path d="M0 0 C3.19445695 1.39713612 5.18934812 3.02532898 7.5625 5.5625 C11.47465671 9.57570873 15.65224379 13.08005984 20.01953125 16.5859375 C22.63042674 18.70066019 25.19331468 20.85602388 27.74462891 23.04125977 C33.01719517 27.55665456 38.37664653 31.88770469 43.90698242 36.08520508 C49.80903982 40.57995066 55.54089606 45.27911612 61.28515625 49.97265625 C64.21097796 52.36289882 67.16011924 54.72077973 70.125 57.0625 C82.28696385 66.79207108 93.75066577 77.23604314 105 88 C105.88945313 88.84691406 106.77890625 89.69382812 107.6953125 90.56640625 C112.42082504 95.16842979 116.64649723 100.05010466 120.7578125 105.20703125 C122.19891793 107.00213645 123.67090771 108.77310692 125.1796875 110.51171875 C134.11769386 120.89698236 149 139.45229408 149 154 C139.90338829 151.30624255 131.46364076 147.22568615 122.875 143.25 C121.35696354 142.55166429 119.83873546 141.85374493 118.3203125 141.15625 C117.57414169 140.8127652 116.82797089 140.4692804 116.05918884 140.11538696 C114.55362703 139.42270075 113.04740806 138.73144113 111.5405426 138.04159546 C108.05573858 136.43993684 104.59609355 134.81165762 101.17944336 133.06884766 C91.64917597 128.26595788 82.25484129 125.90456226 71.8125 123.875 C69.32718612 123.36940806 66.843342 122.85698964 64.35951233 122.34416199 C62.7433543 122.01086626 61.12677178 121.67962155 59.50975037 121.35054016 C53.86005839 120.19757298 48.2648069 118.90346833 42.6875 117.4375 C34.46390925 115.3001384 26.17935933 113.47913013 17.875 111.6875 C7.26504736 109.39820189 -3.3162467 107.0160474 -13.87600708 104.5050354 C-25.42790281 101.75826716 -36.98725405 99.0471857 -48.57836914 96.47021484 C-49.9669713 96.16063645 -51.355012 95.84852704 -52.74243164 95.53369141 C-54.6638769 95.098443 -56.58776163 94.67400711 -58.51171875 94.25 C-59.59928467 94.00765625 -60.68685059 93.7653125 -61.80737305 93.515625 C-68.12879482 92.49468421 -72.17362019 92.55235946 -77.6328125 96.04296875 C-78.6758252 96.6982959 -79.71883789 97.35362305 -80.79345703 98.02880859 C-82.4425708 99.09736084 -82.4425708 99.09736084 -84.125 100.1875 C-85.28270006 100.92165026 -86.4414055 101.65421732 -87.60107422 102.38525391 C-89.95095403 103.86895097 -92.29574743 105.3601992 -94.63671875 106.85791016 C-99.43524899 109.91411692 -104.27917954 112.89459597 -109.125 115.875 C-114.03419814 118.9032829 -118.93130289 121.94609983 -123.78515625 125.0625 C-124.53071777 125.5383252 -125.2762793 126.01415039 -126.04443359 126.50439453 C-127.43590729 127.3943163 -128.82323198 128.29077149 -130.20556641 129.19482422 C-131.76648824 130.1907778 -133.37909797 131.10497088 -135 132 C-135.66 131.67 -136.32 131.34 -137 131 C-126.22432877 112.60911976 -112.73204896 97.68540053 -97.75 82.625 C-97.00556641 81.87581299 -96.26113281 81.12662598 -95.49414062 80.35473633 C-90.82465533 75.69925949 -86.01528723 71.27937706 -81 67 C-80.46568359 66.53867676 -79.93136719 66.07735352 -79.38085938 65.60205078 C-72.86368076 59.98256097 -66.22573485 54.55065982 -59.43847656 49.26220703 C-52.89467239 44.15760855 -46.47043063 38.90902236 -40.04101562 33.66162109 C-38.00566882 32.00461507 -35.96474804 30.35474644 -33.921875 28.70703125 C-22.38834755 19.39586499 -11.11677485 9.80485732 0 0 Z " fill="#020202" transform="translate(511,472)"/>
<path d="M0 0 C2.97019784 1.28466405 5.79639738 2.65966909 8.63500977 4.21289062 C9.70928223 4.79578857 10.78355469 5.37868652 11.89038086 5.97924805 C13.04747559 6.61193604 14.20457031 7.24462402 15.39672852 7.89648438 C17.91403848 9.26259219 20.4341223 10.6235081 22.95532227 11.98242188 C23.61195862 12.33646591 24.26859497 12.69050995 24.94512939 13.05528259 C32.56249624 17.1488784 40.26107508 21.08265874 47.95922852 25.02148438 C60.77657091 31.586528 73.5607652 38.21878432 86.08422852 45.33398438 C86.94008041 45.69656845 87.79593231 46.05915253 88.67771912 46.432724 C91.08422852 48.33398438 91.08422852 48.33398438 91.6855011 51.69389343 C91.69999956 53.10473693 91.68668811 54.51602572 91.65185547 55.92651367 C91.65295067 57.0829689 91.65295067 57.0829689 91.65406799 58.26278687 C91.65058353 60.81197392 91.61168485 63.35933523 91.57250977 65.90820312 C91.56318462 67.67510479 91.5560671 69.44201939 91.55107117 71.2089386 C91.53197769 75.86011431 91.48285705 80.51050964 91.42755127 85.16137695 C91.36741805 90.74126304 91.3444537 96.32141004 91.31528473 101.9015274 C91.26679299 110.37955585 91.17099564 118.85587199 91.08422852 127.33398438 C74.58422852 127.33398438 58.08422852 127.33398438 41.08422852 127.33398438 C40.58922852 98.62398437 40.58922852 98.62398437 40.08422852 69.33398438 C12.03422852 69.00398437 -16.01577148 68.67398438 -44.91577148 68.33398438 C-44.91577148 87.80398438 -44.91577148 107.27398438 -44.91577148 127.33398438 C-58.44577148 127.33398438 -71.97577148 127.33398438 -85.91577148 127.33398438 C-86.31685958 108.64773576 -86.31685958 108.64773576 -86.40405273 100.66015625 C-86.46375638 95.21669618 -86.53424365 89.77492362 -86.67016602 84.33276367 C-86.7791139 79.94297445 -86.83867001 75.55499469 -86.86454391 71.1639576 C-86.88297174 69.49201019 -86.91896247 67.82015811 -86.97307205 66.14898491 C-87.37959792 53.0689255 -87.37959792 53.0689255 -83.78517151 48.80877686 C-81.22823812 46.99097121 -78.75950596 45.64595032 -75.91577148 44.33398438 C-74.36807183 43.39973455 -72.8285537 42.45161085 -71.30249023 41.48242188 C-69.7380378 40.55464018 -68.17156133 39.63026459 -66.60327148 38.70898438 C-59.55953127 34.52711548 -52.55908553 30.28557042 -45.60327148 25.95898438 C-37.04516842 20.63646817 -28.446951 15.38332485 -19.81689453 10.17822266 C-18.46591675 9.3600708 -18.46591675 9.3600708 -17.08764648 8.52539062 C-15.7834375 7.74059326 -15.7834375 7.74059326 -14.45288086 6.93994141 C-12.74778707 5.86063935 -11.08102394 4.7185321 -9.45678711 3.52099609 C-8.6852832 2.95268066 -7.9137793 2.38436523 -7.11889648 1.79882812 C-6.45019531 1.27796631 -5.78149414 0.75710449 -5.0925293 0.22045898 C-2.91577148 -0.66601562 -2.91577148 -0.66601562 0 0 Z " fill="#FDFDFC" transform="translate(444.915771484375,577.666015625)"/>
<path d="M0 0 C11.22 0 22.44 0 34 0 C35.35351562 3.1659375 36.70703125 6.331875 38.1015625 9.59375 C51.5925302 41.13385684 65.179263 72.61969805 79.2578125 103.90234375 C79.72606445 104.94503418 80.19431641 105.98772461 80.67675781 107.06201172 C81.53010529 108.95669503 82.38846119 110.84913439 83.25292969 112.73876953 C83.8044873 113.95282471 83.8044873 113.95282471 84.3671875 115.19140625 C84.6854248 115.88564697 85.00366211 116.5798877 85.33154297 117.29516602 C86 119 86 119 86 121 C74.45 121 62.9 121 51 121 C47.5625 111.125 47.5625 111.125 46.48266602 108.01611328 C46.20092529 107.20899902 45.91918457 106.40188477 45.62890625 105.5703125 C45.34088135 104.74289551 45.05285645 103.91547852 44.75610352 103.06298828 C44.03552089 100.97762032 44.03552089 100.97762032 43 99 C25.51 98.67 8.02 98.34 -10 98 C-10.99 101.3 -11.98 104.6 -13 108 C-14.65 112.29 -16.3 116.58 -18 121 C-28.89 121 -39.78 121 -51 121 C-47.62539096 110.87617287 -47.62539096 110.87617287 -46.10913086 107.42211914 C-45.76636612 106.63582626 -45.42360138 105.84953339 -45.07044983 105.03941345 C-44.70559982 104.21300858 -44.34074982 103.3866037 -43.96484375 102.53515625 C-43.57393051 101.64071304 -43.18301727 100.74626984 -42.78025818 99.82472229 C-41.93992541 97.90279476 -41.09790162 95.98160586 -40.2543335 94.06109619 C-37.99578743 88.91810154 -35.75080215 83.7691861 -33.50390625 78.62109375 C-33.04459717 77.56962158 -32.58528809 76.51814941 -32.11206055 75.43481445 C-27.49083621 64.84961946 -22.92230729 54.24213037 -18.375 43.625 C-17.81511887 42.31817764 -17.81511887 42.31817764 -17.243927 40.98495483 C-11.4089919 27.35849891 -5.66235455 13.69924489 0 0 Z " fill="#173B75" transform="translate(379,301)"/>
<path d="M0 0 C31.35 0 62.7 0 95 0 C95 8.58 95 17.16 95 26 C74.21 26 53.42 26 32 26 C32 33.26 32 40.52 32 48 C50.15 48 68.3 48 87 48 C87 55.92 87 63.84 87 72 C68.85 72 50.7 72 32 72 C32 79.59 32 87.18 32 95 C53.45 95 74.9 95 97 95 C97 103.58 97 112.16 97 121 C64.99 121 32.98 121 0 121 C0 81.07 0 41.14 0 0 Z " fill="#1A3D76" transform="translate(597,301)"/>
<path d="M0 0 C7.1266606 5.45903387 7.1266606 5.45903387 9.63720703 9.22485352 C9.37160506 12.98224235 7.43490007 14.77822032 4.82080078 17.33422852 C4.05703125 18.08833008 3.29326172 18.84243164 2.50634766 19.61938477 C1.70390625 20.39668945 0.90146484 21.17399414 0.07470703 21.97485352 C-1.13475586 23.16401367 -1.13475586 23.16401367 -2.36865234 24.37719727 C-4.36013075 26.33332398 -6.35827018 28.28211071 -8.36279297 30.22485352 C-11.4385857 28.75734961 -13.54339714 27.23183923 -15.98779297 24.84985352 C-23.36951829 18.2145948 -32.6124831 15.83958652 -42.35107422 15.94360352 C-49.85559636 16.64441492 -58.03393631 19.73613115 -63.36279297 25.22485352 C-70.81245805 35.36467543 -72.60606866 45.85426042 -71.36279297 58.22485352 C-69.45047191 67.13453117 -65.09832365 74.99439403 -57.42529297 80.09985352 C-48.14834231 85.26918625 -37.22256429 85.77323273 -26.98779297 83.09985352 C-21.49576984 81.19981257 -16.64177489 77.93303362 -12.89013672 73.47485352 C-11.36279297 72.22485352 -11.36279297 72.22485352 -9.40576172 72.34985352 C-1.96647498 75.53608723 4.07726553 83.5490799 9.63720703 89.22485352 C7.24521799 96.87115556 0.1123946 101.23421209 -6.58154297 105.06860352 C-24.26006093 113.99537991 -43.50164205 116.40808639 -62.68701172 110.53735352 C-78.23457112 104.9858339 -90.74092859 95.00110792 -98.36279297 80.22485352 C-103.13027655 70.07994721 -104.54382883 62.10610823 -104.55029297 50.97485352 C-104.56253906 49.88043945 -104.57478516 48.78602539 -104.58740234 47.65844727 C-104.61582153 31.83843104 -99.54876549 18.7650546 -88.62280273 7.2878418 C-65.94044095 -15.42923198 -26.18098459 -19.39608338 0 0 Z " fill="#173B75" transform="translate(571.36279296875,310.775146484375)"/>
<path d="M0 0 C24.1236328 3.44623326 24.1236328 3.44623326 32.27807617 4.85351562 C33.22758652 5.01494553 34.17709686 5.17637543 35.15538025 5.34269714 C38.20169757 5.86125704 41.24733277 6.38370486 44.29296875 6.90625 C46.4618146 7.27617481 48.63070496 7.64583875 50.79963684 8.01525879 C56.44983335 8.97827853 62.09946459 9.94457306 67.7489624 10.91168213 C74.58971871 12.08210388 81.4311323 13.24867625 88.27245808 14.41576385 C93.59938527 15.32456881 98.92621732 16.23391777 104.25273132 17.1451416 C105.73575241 17.39866142 105.73575241 17.39866142 107.24873352 17.65730286 C109.04840156 17.96497476 110.84802469 18.27290955 112.64758301 18.58122253 C121.42733132 20.0815663 130.21387588 21.53564598 139 23 C139 40.82 139 58.64 139 77 C131.41 77 123.82 77 116 77 C115.67 67.43 115.34 57.86 115 48 C112.08527365 47.02842455 109.72402243 46.71746042 106.67578125 46.46484375 C105.28613159 46.34677368 105.28613159 46.34677368 103.8684082 46.22631836 C102.6949585 46.1310083 101.52150879 46.03569824 100.3125 45.9375 C96.579375 45.628125 92.84625 45.31875 89 45 C89 55.56 89 66.12 89 77 C86.69 77 84.38 77 82 77 C81.67 66.11 81.34 55.22 81 44 C71.76 43.01 62.52 42.02 53 41 C53 52.88 53 64.76 53 77 C50.69 77 48.38 77 46 77 C45.67 64.79 45.34 52.58 45 40 C35.1 39.01 25.2 38.02 15 37 C15 50.2 15 63.4 15 77 C10.05 77 5.1 77 0 77 C0 51.59 0 26.18 0 0 Z " fill="#FAFAFA" transform="translate(542,628)"/>
<path d="M0 0 C16.17 0 32.34 0 49 0 C53.95 8.91 53.95 8.91 59 18 C61.11593878 21.00179256 63.06575356 23.70128705 65.4375 26.4375 C66.24537964 27.40151733 66.24537964 27.40151733 67.06958008 28.38500977 C75.06189626 38.39326361 75.06189626 38.39326361 85 46 C85 46.66 85 47.32 85 48 C82.91674712 48.02773562 80.83337771 48.04671684 78.75 48.0625 C77.00976562 48.07990234 77.00976562 48.07990234 75.234375 48.09765625 C72.04305497 48.07299703 68.91787951 47.81476196 65.74243164 47.50219727 C58.12581265 46.85466535 50.5237255 46.85517064 42.88671875 46.8671875 C41.34471115 46.86651098 39.80270365 46.86553808 38.26069641 46.86428833 C35.03926573 46.86282285 31.81786295 46.86492538 28.59643555 46.86962891 C24.54024437 46.87527328 20.48411961 46.87198774 16.42793083 46.86617661 C-1.07399126 46.8450503 -18.5202414 46.99854956 -36 48 C-31.23144531 43.21826172 -31.23144531 43.21826172 -29.1484375 41.25390625 C-16.75904691 29.4375932 -7.61865054 15.23730107 0 0 Z " fill="#030303" transform="translate(487,718)"/>
<path d="M0 0 C9.8126227 1.8685739 19.57647567 3.81288658 29.25 6.3125 C37.85041558 8.52978789 46.50575482 10.44546361 55.1875 12.3125 C67.86021565 15.04163653 80.47211051 17.97136882 93.05224609 21.10009766 C99.30385426 22.65029318 105.54777581 24.1452607 111.87109375 25.3828125 C126.81310943 28.3575413 139.63714901 33.44928778 153.2736969 40.20480347 C160.43425109 43.7399574 167.71450884 47.01005162 174.9928894 50.29373169 C177.92280524 51.61617704 180.84991664 52.94476456 183.77705383 54.27334595 C186.51740915 55.5169491 189.25867617 56.75853345 192 58 C192 58.33 192 58.66 192 59 C183.10220997 58.36469336 174.35429699 57.02196165 165.5625 55.5625 C164.2207606 55.34274774 162.87896388 55.1233452 161.53710938 54.90429688 C156.81144826 54.13115384 152.0861681 53.35583962 147.36584473 52.5506897 C140.7216688 51.42469055 134.06728784 50.41430698 127.39706421 49.4553833 C122.57234602 48.75195991 117.75403655 48.01056009 112.93669701 47.25844193 C109.31871117 46.69541917 105.69997098 46.14991204 102.07324219 45.64599609 C82.14826397 42.86047162 66.94149722 38.22746473 49.61346436 27.58380127 C46.23422116 25.53592575 42.78454439 23.73826336 39.2578125 21.95703125 C38.22438721 21.42609863 37.19096191 20.89516602 36.1262207 20.34814453 C35.13581787 19.84138184 34.14541504 19.33461914 33.125 18.8125 C21.97223781 13.06978786 10.95066085 7.11838519 0 1 C0 0.67 0 0.34 0 0 Z " fill="#F8F8F7" transform="translate(467,582)"/>
<path d="M0 0 C3.43757439 3.1321706 4.73512739 6.830429 6.35546875 11.09765625 C6.66196854 11.88772568 6.96846832 12.6777951 7.28425598 13.49180603 C7.9291824 15.15886017 8.57026715 16.82740494 9.20776367 18.49731445 C10.18639888 21.05961701 11.17711072 23.61698931 12.16992188 26.17382812 C12.79498349 27.79399607 13.41935632 29.41442995 14.04296875 31.03515625 C14.3397905 31.80287857 14.63661224 32.57060089 14.94242859 33.36158752 C17 38.7670341 17 38.7670341 17 41 C6.44 41 -4.12 41 -15 41 C-11.62414434 28.62186256 -11.62414434 28.62186256 -9.3359375 22.87109375 C-8.85382813 21.65228516 -8.37171875 20.43347656 -7.875 19.17773438 C-7.37505063 17.93096928 -6.87505012 16.68422469 -6.375 15.4375 C-5.86667114 14.15580363 -5.35885563 12.87390354 -4.8515625 11.59179688 C-1.20176542 2.40353084 -1.20176542 2.40353084 0 0 Z " fill="#F1F3F4" transform="translate(395,334)"/>
<path d="M0 0 C2.949375 0.144375 5.89875 0.28875 8.9375 0.4375 C10.33343384 0.50215454 10.33343384 0.50215454 11.75756836 0.56811523 C12.48596924 0.60622314 13.21437012 0.64433105 13.96484375 0.68359375 C15.08814087 0.73858032 15.08814087 0.73858032 16.23413086 0.79467773 C18 1 18 1 19 2 C19.0883967 4.3756852 19.11530305 6.72208674 19.09765625 9.09765625 C19.0962413 9.80651474 19.09482635 10.51537323 19.09336853 11.24571228 C19.08775443 13.51801712 19.07519963 15.79022475 19.0625 18.0625 C19.05748681 19.59960796 19.05292359 21.13671745 19.04882812 22.67382812 C19.0386297 26.44928667 19.01905732 30.22453404 19 34 C12.73 34 6.46 34 0 34 C0 22.78 0 11.56 0 0 Z " fill="#F4F4F3" transform="translate(563,671)"/>
<path d="M0 0 C3.53050621 1.24221515 5.40967318 2.33096294 7.875 5.125 C9.45781425 9.16996975 9.82152933 12.71900311 9 17 C7.03889376 20.54652163 4.36334035 22.7577731 1 25 C-3.99802641 25.73981114 -7.96393533 25.51803233 -12.5 23.25 C-15.50604662 20.54455804 -16.75290029 18.59964546 -17.37109375 14.59765625 C-17.55137138 7.7152926 -17.55137138 7.7152926 -14.6875 4 C-9.40273484 0.06715151 -6.46663058 -0.70746044 0 0 Z " fill="#636466" transform="translate(344,445)"/>
<path d="M0 0 C2.43375 0.144375 4.8675 0.28875 7.375 0.4375 C8.13989746 0.48060303 8.90479492 0.52370605 9.69287109 0.56811523 C14.77777778 0.88888889 14.77777778 0.88888889 17 2 C17 11.24 17 20.48 17 30 C11.39 30 5.78 30 0 30 C0 20.1 0 10.2 0 0 Z " fill="#F4F4F4" transform="translate(601,675)"/>
<path d="M0 0 C24.42 0 48.84 0 74 0 C74 1.98 74 3.96 74 6 C49.58 6 25.16 6 0 6 C0 4.02 0 2.04 0 0 Z " fill="#EDECEC" transform="translate(406,688)"/>
<path d="M0 0 C24.42 0 48.84 0 74 0 C74 1.98 74 3.96 74 6 C49.58 6 25.16 6 0 6 C0 4.02 0 2.04 0 0 Z " fill="#EFEFEF" transform="translate(406,676)"/>
<path d="M0 0 C24.42 0 48.84 0 74 0 C74 1.98 74 3.96 74 6 C49.58 6 25.16 6 0 6 C0 4.02 0 2.04 0 0 Z " fill="#EFEFEE" transform="translate(406,664)"/>
<path d="M0 0 C24.42 0 48.84 0 74 0 C74 1.98 74 3.96 74 6 C49.58 6 25.16 6 0 6 C0 4.02 0 2.04 0 0 Z " fill="#E8E8E7" transform="translate(406,652)"/>
<path d="M0 0 C2.206875 -0.061875 4.41375 -0.12375 6.6875 -0.1875 C8.54955078 -0.23970703 8.54955078 -0.23970703 10.44921875 -0.29296875 C15.20179198 0.09915775 17.68203836 1.68203836 21 5 C21.22686654 7.85851838 21.40350129 10.20431252 21 13 C19.4375 14.75 19.4375 14.75 18 16 C18.3171632 19.171632 19.77929188 22.07030051 21 25 C18.1875 25.3125 18.1875 25.3125 15 25 C13.11400657 22.61107499 12 21.08148442 12 18 C10.02 18 8.04 18 6 18 C6 20.31 6 22.62 6 25 C4.02 25 2.04 25 0 25 C0 16.75 0 8.5 0 0 Z " fill="#626261" transform="translate(453,445)"/>
<path d="M0 0 C1.65 0 3.3 0 5 0 C6.4765625 1.5390625 6.4765625 1.5390625 7.625 3.625 C8.03621094 4.35074219 8.44742187 5.07648438 8.87109375 5.82421875 C9.83521049 7.6823953 10.76499289 9.55831885 11.6875 11.4375 C12.74070801 14.11710613 12.74070801 14.11710613 15 15 C15.226875 14.195625 15.45375 13.39125 15.6875 12.5625 C17.33631588 8.08714261 19.60544412 4.11278682 22 0 C23.98 0 25.96 0 28 0 C28 8.25 28 16.5 28 25 C26.35 25 24.7 25 23 25 C22.67 20.05 22.34 15.1 22 10 C19.69 14.29 17.38 18.58 15 23 C14.01 23 13.02 23 12 23 C10.02 19.37 8.04 15.74 6 12 C5.67 16.29 5.34 20.58 5 25 C3.35 25 1.7 25 0 25 C0 16.75 0 8.5 0 0 Z " fill="#676868" transform="translate(359,445)"/>
<path d="M0 0 C1.65 0 3.3 0 5 0 C6.6953125 2.046875 6.6953125 2.046875 8.125 4.75 C9.94424034 8.11313619 11.67962152 10.90616202 14 14 C16.64 9.38 19.28 4.76 22 0 C23.65 0 25.3 0 27 0 C27 8.25 27 16.5 27 25 C25.68 25 24.36 25 23 25 C22.67 20.05 22.34 15.1 22 10 C20.56770833 13.09244792 19.13541667 16.18489583 17.703125 19.27734375 C16 22 16 22 12 23 C10.02 19.37 8.04 15.74 6 12 C5.67 16.29 5.34 20.58 5 25 C3.35 25 1.7 25 0 25 C0 16.75 0 8.5 0 0 Z " fill="#6A6A6A" transform="translate(394,445)"/>
<path d="M0 0 C4.95 0.33 9.9 0.66 15 1 C15 9.25 15 17.5 15 26 C10.05 26 5.1 26 0 26 C0 17.42 0 8.84 0 0 Z " fill="#F3F4F4" transform="translate(637,679)"/>
<path d="M0 0 C24.09 0 48.18 0 73 0 C73 1.65 73 3.3 73 5 C48.91 5 24.82 5 0 5 C0 3.35 0 1.7 0 0 Z " fill="#F9F9F9" transform="translate(406,700)"/>
<path d="M0 0 C6.27 0 12.54 0 19 0 C19 1.65 19 3.3 19 5 C14.71 5 10.42 5 6 5 C6 6.65 6 8.3 6 10 C9.96 10 13.92 10 18 10 C18 11.65 18 13.3 18 15 C14.04 15 10.08 15 6 15 C6 16.65 6 18.3 6 20 C10.62 20 15.24 20 20 20 C20 21.65 20 23.3 20 25 C13.4 25 6.8 25 0 25 C0 16.75 0 8.5 0 0 Z " fill="#757676" transform="translate(428,445)"/>
<path d="M0 0 C1.98 0 3.96 0 6 0 C7.48778927 3.22526177 8.96368107 6.4558333 10.4375 9.6875 C11.06881836 11.05551758 11.06881836 11.05551758 11.71289062 12.45117188 C12.11572266 13.33740234 12.51855469 14.22363281 12.93359375 15.13671875 C13.4913147 16.35427856 13.4913147 16.35427856 14.06030273 17.59643555 C15.02183049 20.0558382 15.56105395 22.40071118 16 25 C14.02 25 12.04 25 10 25 C9.505 22.525 9.505 22.525 9 20 C7.04081032 20.05991406 5.08248471 20.14867138 3.125 20.25 C2.03445313 20.29640625 0.94390625 20.3428125 -0.1796875 20.390625 C-3.1332065 20.68846128 -3.1332065 20.68846128 -4.3828125 23.046875 C-4.58648438 23.69140625 -4.79015625 24.3359375 -5 25 C-6.98 25 -8.96 25 -11 25 C-9.54366034 21.58248014 -8.08458127 18.16613652 -6.625 14.75 C-6.2125 13.78191406 -5.8 12.81382812 -5.375 11.81640625 C-4.97539063 10.88183594 -4.57578125 9.94726562 -4.1640625 8.984375 C-3.79748535 8.12553711 -3.4309082 7.26669922 -3.05322266 6.38183594 C-2.09645571 4.21813211 -1.07823088 2.10532038 0 0 Z " fill="#727473" transform="translate(641,445)"/>
<path d="M0 0 C1.65 0 3.3 0 5 0 C16 21.72191011 16 21.72191011 16 25 C14.02 25 12.04 25 10 25 C9.79632812 24.35546875 9.59265625 23.7109375 9.3828125 23.046875 C8.1332065 20.68846128 8.1332065 20.68846128 5.1796875 20.390625 C4.08914063 20.34421875 2.99859375 20.2978125 1.875 20.25 C0.77929688 20.19328125 -0.31640625 20.1365625 -1.4453125 20.078125 C-2.28835938 20.05234375 -3.13140625 20.0265625 -4 20 C-4.99 22.475 -4.99 22.475 -6 25 C-7.65 25 -9.3 25 -11 25 C-8.4621689 16.11759114 -4.22230349 8.17381793 0 0 Z " fill="#717272" transform="translate(528,445)"/>
<path d="M0 0 C5.94 0 11.88 0 18 0 C18 1.65 18 3.3 18 5 C13.71 5 9.42 5 5 5 C5 6.65 5 8.3 5 10 C8.96 10 12.92 10 17 10 C17 11.65 17 13.3 17 15 C13.04 15 9.08 15 5 15 C5 16.65 5 18.3 5 20 C9.62 20 14.24 20 19 20 C19 21.65 19 23.3 19 25 C12.73 25 6.46 25 0 25 C0 16.75 0 8.5 0 0 Z " fill="#767676" transform="translate(609,445)"/>
<path d="M0 0 C1.98 0 3.96 0 6 0 C5.01 0.33 4.02 0.66 3 1 C3.66 1.99 4.32 2.98 5 4 C5.25760279 6.69452521 5.08900053 9.28548375 5 12 C7.64 11.67 10.28 11.34 13 11 C13.309375 9.88625 13.61875 8.7725 13.9375 7.625 C15 4 15 4 16 2 C16.99 2 17.98 2 19 2 C20.5635348 5.12706959 20.39958487 8.57982443 20 12 C19.01 13.485 19.01 13.485 18 15 C17.34 15 16.68 15 16 15 C17.65 17.97 19.3 20.94 21 24 C18.25 24.375 18.25 24.375 15 24 C13.64721885 22.01310269 12.31431695 20.01254782 11 18 C7.86734521 17.0311941 7.86734521 17.0311941 5 17 C5 19.31 5 21.62 5 24 C3.35 24 1.7 24 0 24 C0 16.08 0 8.16 0 0 Z " fill="#6A6B6A" transform="translate(582,446)"/>
<path d="M0 0 C0.95648438 -0.02578125 1.91296875 -0.0515625 2.8984375 -0.078125 C6.00392147 0.29560086 7.33036066 1.18373709 9.625 3.25 C8.965 4.57 8.305 5.89 7.625 7.25 C6.6040625 6.7240625 6.6040625 6.7240625 5.5625 6.1875 C1.8069022 4.98890496 -0.57603588 5.26508338 -4.375 6.25 C-6.54166667 7.75 -6.54166667 7.75 -7.375 10.25 C-7.38168717 13.87057268 -7.38168717 13.87057268 -6.375 17.25 C-2.68094568 19.71270288 -0.74222928 19.47985417 3.625 19.25 C5.93536915 18.82145005 5.93536915 18.82145005 7.625 18.25 C8.285 19.57 8.945 20.89 9.625 22.25 C4.6858725 25.28946308 0.31112337 26.34857124 -5.375 25.25 C-8.50214798 23.57687624 -10.60718854 21.26211511 -12.75 18.4375 C-13.74803332 14.94438338 -14.15150152 11.7903205 -13.375 8.25 C-9.81654201 2.55210101 -6.7322889 0.10829419 0 0 Z " fill="#69696A" transform="translate(492.375,444.75)"/>
<path d="M0 0 C3.0625 1.5 3.0625 1.5 5 3 C4.34 4.32 3.68 5.64 3 7 C2.01 6.67 1.02 6.34 0 6 C-3.55880051 5.62689995 -6.82758522 5.34051669 -10 7.125 C-11.48549091 9.91029546 -11.38050713 11.89252511 -11 15 C-10.16666667 17.5 -10.16666667 17.5 -8 19 C-5.18957422 19.17843973 -2.76965582 19.19137737 0 19 C1.32 19 2.64 19 4 19 C4 20.32 4 21.64 4 23 C-0.232009 25.1160045 -4.33701079 25.74826833 -9 25 C-13.05465111 22.89758831 -15.32279525 21.23113017 -17 17 C-17.67336584 12.18465124 -17.72619338 8.24490293 -15.25 4 C-10.5087215 -0.21446978 -6.1785371 -0.75857484 0 0 Z " fill="#5F6365" transform="translate(318,445)"/>
<path d="M0 0 C2.625 -0.625 2.625 -0.625 6 0 C8.42504235 3.11323005 10.22831653 6.48176333 12 10 C12.81360995 8.70903219 13.62585046 7.41720125 14.4375 6.125 C14.88996094 5.40570313 15.34242188 4.68640625 15.80859375 3.9453125 C17.02461501 2.0222453 17.02461501 2.0222453 18 0 C19.98 0 21.96 0 24 0 C22.68608808 3.58628133 21.06477996 6.52532708 18.9375 9.6875 C15.80790487 14.75120016 15.02508107 19.10594897 15 25 C13.35 25 11.7 25 10 25 C10.020625 23.80375 10.04125 22.6075 10.0625 21.375 C9.42149499 14.89257832 5.53903075 10.14741137 1.93359375 4.94140625 C0 2 0 2 0 0 Z " fill="#5E6162" transform="translate(700,445)"/>
<path d="M0 0 C1.65 0 3.3 0 5 0 C5 6.6 5 13.2 5 20 C8.96 20 12.92 20 17 20 C17 21.65 17 23.3 17 25 C11.06 25 5.12 25 -1 25 C-1.02682614 21.02078906 -1.04675393 17.04175659 -1.0625 13.0625 C-1.07087891 11.92619141 -1.07925781 10.78988281 -1.08789062 9.61914062 C-1.09111328 8.53955078 -1.09433594 7.45996094 -1.09765625 6.34765625 C-1.10289307 5.34742432 -1.10812988 4.34719238 -1.11352539 3.31665039 C-1 1 -1 1 0 0 Z " fill="#78797A" transform="translate(662,445)"/>
<path d="M0 0 C3.71317907 1.14770989 5.2692056 1.85342428 7.4375 5.0625 C8.07406938 8.80234509 7.69334708 10.57212644 5.9375 13.9375 C2.90834317 16.51228331 1.23099229 16.80795844 -2.65625 16.546875 C-4.5625 16.0625 -4.5625 16.0625 -7.0625 13.9375 C-8.84051176 10.52964413 -9.27210213 8.84704468 -8.5625 5.0625 C-5.88937913 1.25532785 -4.71546409 0.08272744 0 0 Z " fill="#F7F7F7" transform="translate(340.5625,448.9375)"/>
<path d="M0 0 C6.93 0 13.86 0 21 0 C21 1.65 21 3.3 21 5 C18.36 5 15.72 5 13 5 C13 11.6 13 18.2 13 25 C11.35 25 9.7 25 8 25 C8 18.4 8 11.8 8 5 C5.36 5 2.72 5 0 5 C0 3.35 0 1.7 0 0 Z " fill="#6C6D6E" transform="translate(678,445)"/>
<path d="M0 0 C1.65 0 3.3 0 5 0 C5 6.6 5 13.2 5 20 C9.29 20 13.58 20 18 20 C18 21.65 18 23.3 18 25 C12.06 25 6.12 25 0 25 C0 16.75 0 8.5 0 0 Z " fill="#6A6B6B" transform="translate(548,445)"/>
<path d="M0 0 C1.45792884 -0.05399736 2.91642712 -0.09279177 4.375 -0.125 C5.18710937 -0.14820313 5.99921875 -0.17140625 6.8359375 -0.1953125 C9 0 9 0 11 2 C11.65399459 5.0737746 12 7.85599094 12 11 C12.86092817 12.79417001 12.86092817 12.79417001 14 14.5625 C16 18 16 18 16 20 C13.1875 20.3125 13.1875 20.3125 10 20 C8.11400657 17.61107499 7 16.08148442 7 13 C5.02 13 3.04 13 1 13 C1 15.31 1 17.62 1 20 C0.67 20 0.34 20 0 20 C0 13.33333333 0 6.66666667 0 0 Z " fill="#7C7B7B" transform="translate(458,450)"/>
<path d="M0 0 C1.98 0 3.96 0 6 0 C6 8.25 6 16.5 6 25 C4.35 25 2.7 25 1 25 C0.67 20.05 0.34 15.1 0 10 C-0.66 11.32 -1.32 12.64 -2 14 C-3.32 14 -4.64 14 -6 14 C-6.33 14.99 -6.66 15.98 -7 17 C-8.32 16.34 -9.64 15.68 -11 15 C-10.34 14.67 -9.68 14.34 -9 14 C-8.34 14.33 -7.68 14.66 -7 15 C-6.773125 14.195625 -6.54625 13.39125 -6.3125 12.5625 C-4.66368412 8.08714261 -2.39455588 4.11278682 0 0 Z " fill="#727374" transform="translate(381,445)"/>
<path d="M0 0 C1.65 0 3.3 0 5 0 C5 8.25 5 16.5 5 25 C3.68 25 2.36 25 1 25 C0.67 20.05 0.34 15.1 0 10 C-1.32 12.64 -2.64 15.28 -4 18 C-4.99 18 -5.98 18 -7 18 C-7.3883503 12.928602 -6.34711192 10.00247474 -3.8125 5.625 C-3.22082031 4.56539063 -2.62914062 3.50578125 -2.01953125 2.4140625 C-1.35308594 1.61742187 -0.68664062 0.82078125 0 0 Z " fill="#636464" transform="translate(416,445)"/>
<path d="M0 0 C3.58875 -0.0928125 3.58875 -0.0928125 7.25 -0.1875 C8.37003418 -0.22846802 8.37003418 -0.22846802 9.51269531 -0.27026367 C12.72890947 -0.31048797 14.71220619 -0.17511982 17.484375 1.51171875 C17.98453125 2.00285156 18.4846875 2.49398438 19 3 C18.34 3.66 17.68 4.32 17 5 C16.30643577 7.32548007 15.63850788 9.65880445 15 12 C14 13 14 13 12.15234375 13.09765625 C10.1015625 13.06510417 8.05078125 13.03255208 6 13 C5.65820312 10.02148438 5.65820312 10.02148438 5.31640625 7.04296875 C5.02829265 4.80603607 5.02829265 4.80603607 4 2 C3.01 1.67 2.02 1.34 1 1 C1 8.92 1 16.84 1 25 C0.67 25 0.34 25 0 25 C0 16.75 0 8.5 0 0 Z " fill="#838383" transform="translate(581,445)"/>
<path d="M0 0 C1.98 0 3.96 0 6 0 C5.67 1.65 5.34 3.3 5 5 C4.01 5 3.02 5 2 5 C1.87625 5.886875 1.7525 6.77375 1.625 7.6875 C1.05587264 10.70387502 0.23385564 13.20326054 -1 16 C1.64 16 4.28 16 7 16 C7 16.99 7 17.98 7 19 C3.7 19 0.4 19 -3 19 C-3.66 20.98 -4.32 22.96 -5 25 C-6.98 25 -8.96 25 -11 25 C-9.54366034 21.58248014 -8.08458127 18.16613652 -6.625 14.75 C-6.2125 13.78191406 -5.8 12.81382812 -5.375 11.81640625 C-4.97539063 10.88183594 -4.57578125 9.94726562 -4.1640625 8.984375 C-3.79748535 8.12553711 -3.4309082 7.26669922 -3.05322266 6.38183594 C-2.09645571 4.21813211 -1.07823088 2.10532038 0 0 Z " fill="#666666" transform="translate(641,445)"/>
<path d="M0 0 C1.32 0 2.64 0 4 0 C5.67275302 3.62222211 7.33716251 7.2482166 9 10.875 C9.47695313 11.90753906 9.95390625 12.94007813 10.4453125 14.00390625 C10.89648438 14.99003906 11.34765625 15.97617187 11.8125 16.9921875 C12.44091797 18.35899658 12.44091797 18.35899658 13.08203125 19.75341797 C14 22 14 22 14 24 C12.02 24 10.04 24 8 24 C7.34 22.02 6.68 20.04 6 18 C3.03 18 0.06 18 -3 18 C-3 17.01 -3 16.02 -3 15 C-0.69 15 1.62 15 4 15 C3.71125 14.25234375 3.4225 13.5046875 3.125 12.734375 C2.75375 11.74953125 2.3825 10.7646875 2 9.75 C1.62875 8.77546875 1.2575 7.8009375 0.875 6.796875 C0 4 0 4 0 0 Z " fill="#676868" transform="translate(530,446)"/>
<path d="M0 0 C3.63535761 0.20196431 4.7994786 0.78322011 7.3125 3.5 C9.41937502 7.86981486 9.98709638 11.23470713 9 16 C7.61757029 18.71953385 6.36150949 19.90088045 4 22 C1.1875 22.875 1.1875 22.875 -1 23 C-1.8125 21.3125 -1.8125 21.3125 -2 19 C-1.195625 18.21625 -0.39125 17.4325 0.4375 16.625 C3.24431869 14.24735625 3.24431869 14.24735625 3.5 11.0625 C2.93214853 7.58440973 1.67961859 5.07930075 0 2 C0 1.34 0 0.68 0 0 Z " fill="#5F6264" transform="translate(344,446)"/>
<path d="M0 0 C1.65 0 3.3 0 5 0 C5 8.25 5 16.5 5 25 C3.35 25 1.7 25 0 25 C0 16.75 0 8.5 0 0 Z " fill="#6C6D6C" transform="translate(507,445)"/>
<path d="M0 0 C4.62 0 9.24 0 14 0 C14 0.33 14 0.66 14 1 C9.71 1 5.42 1 1 1 C1.33 4.96 1.66 8.92 2 13 C2.99 13 3.98 13 5 13 C5.99 13.66 6.98 14.32 8 15 C7.01 15.495 7.01 15.495 6 16 C5.53348793 18.12576782 5.53348793 18.12576782 5.375 20.5625 C5.30023438 21.38878906 5.22546875 22.21507812 5.1484375 23.06640625 C5.09945313 23.70449219 5.05046875 24.34257812 5 25 C3.35 25 1.7 25 0 25 C0 16.75 0 8.5 0 0 Z " fill="#757575" transform="translate(453,445)"/>
<path d="M0 0 C3.0625 1.5 3.0625 1.5 5 3 C4.34 4.32 3.68 5.64 3 7 C2.01 6.67 1.02 6.34 0 6 C-2.39490986 5.93029948 -4.79167691 5.91551997 -7.1875 5.9375 C-8.45980469 5.94652344 -9.73210937 5.95554687 -11.04296875 5.96484375 C-12.01878906 5.97644531 -12.99460937 5.98804688 -14 6 C-14 5.01 -14 4.02 -14 3 C-9.83065038 -0.63136903 -5.26188455 -0.74218263 0 0 Z " fill="#717476" transform="translate(318,445)"/>
<path d="M0 0 C0.66 0.66 1.32 1.32 2 2 C-1.50074982 6.17443363 -4.97950843 10.3145494 -9 14 C-9.66 14 -10.32 14 -11 14 C-11.33 14.99 -11.66 15.98 -12 17 C-13.62332967 18.38576923 -15.28724465 19.72641268 -17 21 C-17.33 20.01 -17.66 19.02 -18 18 C-12.06 12.06 -6.12 6.12 0 0 Z M-20 21 C-19.01 21.495 -19.01 21.495 -18 22 C-18.99 22.495 -18.99 22.495 -20 23 C-20 22.34 -20 21.68 -20 21 Z " fill="#0E3472" transform="translate(767,746)"/>
<path d="M0 0 C2.7578125 -0.375 2.7578125 -0.375 6 0 C8.1171875 2.625 8.1171875 2.625 9.875 6 C10.47054687 7.11375 11.06609375 8.2275 11.6796875 9.375 C12.33324219 10.674375 12.33324219 10.674375 13 12 C12.01 12 11.02 12 10 12 C9.67 12.99 9.34 13.98 9 15 C0 4.33333333 0 4.33333333 0 0 Z " fill="#6D6E6F" transform="translate(700,445)"/>
<path d="M0 0 C0.53625 0.639375 1.0725 1.27875 1.625 1.9375 C4.44367193 4.38529404 6.33860732 4.66714612 10 5 C10.12375 5.639375 10.2475 6.27875 10.375 6.9375 C10.58125 7.618125 10.7875 8.29875 11 9 C11.66 9.33 12.32 9.66 13 10 C7.87102106 10.36490759 4.10182889 10.56057961 -0.5625 8.1875 C-3 6 -3 6 -4 3 C-3.01 2.67 -2.02 2.34 -1 2 C-0.67 1.34 -0.34 0.68 0 0 Z " fill="#6C6E6F" transform="translate(332,460)"/>
<path d="M0 0 C6.0546875 -0.1953125 6.0546875 -0.1953125 8 0 C8.66 0.66 9.32 1.32 10 2 C9.44444444 6.55555556 9.44444444 6.55555556 8 8 C5.32941149 8.14115161 2.67567762 8.04247107 0 8 C0 5.36 0 2.72 0 0 Z " fill="#FCFCFB" transform="translate(587,450)"/>
<path d="M0 0 C6.0546875 -0.1953125 6.0546875 -0.1953125 8 0 C8.66 0.66 9.32 1.32 10 2 C9.44444444 6.55555556 9.44444444 6.55555556 8 8 C5.32941149 8.14115161 2.67567762 8.04247107 0 8 C0 5.36 0 2.72 0 0 Z " fill="#FBFBFA" transform="translate(459,450)"/>
<path d="M0 0 C0.66 0.66 1.32 1.32 2 2 C0.60919892 3.58775549 -0.78788404 5.17000939 -2.1875 6.75 C-2.96480469 7.63171875 -3.74210937 8.5134375 -4.54296875 9.421875 C-6.88558199 11.87994295 -9.33790936 13.90286917 -12 16 C-12.53625 16.7425 -13.0725 17.485 -13.625 18.25 C-14.07875 18.8275 -14.5325 19.405 -15 20 C-15.99 20 -16.98 20 -18 20 C-16.5735422 16.7413364 -14.83295838 14.5975146 -12.3046875 12.109375 C-11.23154297 11.04589844 -11.23154297 11.04589844 -10.13671875 9.9609375 C-9.39035156 9.23132813 -8.64398438 8.50171875 -7.875 7.75 C-7.12089844 7.00492188 -6.36679688 6.25984375 -5.58984375 5.4921875 C-3.73099228 3.6568658 -1.86762995 1.8263809 0 0 Z M-19 20 C-19 20.99 -19 21.98 -19 23 C-19.66 22.67 -20.32 22.34 -21 22 C-20.34 21.34 -19.68 20.68 -19 20 Z " fill="#1E427A" transform="translate(260,239)"/>
<path d="M0 0 C1.32 0.66 2.64 1.32 4 2 C3 5 3 5 0.9375 6.1875 C-2.9298739 7.25719917 -5.98564965 7.26323609 -10 7 C-10.66 6.34 -11.32 5.68 -12 5 C-11.34 5 -10.68 5 -10 5 C-10.33 4.01 -10.66 3.02 -11 2 C-8.70961976 0.85480988 -7.46931463 0.92648088 -4.9375 1 C-3.638125 1 -2.33875 1 -1 1 C-0.67 0.67 -0.34 0.34 0 0 Z " fill="#6A6E71" transform="translate(319,463)"/>
<path d="M0 0 C0 3.63 0 7.26 0 11 C-1.98 11.99 -1.98 11.99 -4 13 C-6.60018816 9.09971775 -6.15085514 5.52565431 -6 1 C-3.92446352 0.4465236 -2.15634036 0 0 0 Z " fill="#646362" transform="translate(485,452)"/>
<path d="M0 0 C1.98 0 3.96 0 6 0 C4.6302836 3.99500618 2.74277578 6.80009492 0 10 C-1.32 9.34 -2.64 8.68 -4 8 C-2.68 5.36 -1.36 2.72 0 0 Z " fill="#707172" transform="translate(718,445)"/>
<path d="M0 0 C9.9 1.98 9.9 1.98 20 4 C19.01 4.66 18.02 5.32 17 6 C16.41734375 6.44085937 15.8346875 6.88171875 15.234375 7.3359375 C13 8 13 8 9.765625 6.6640625 C8.58453 6.00052598 7.41278871 5.32011764 6.25 4.625 C5.64800781 4.28210938 5.04601562 3.93921875 4.42578125 3.5859375 C2.94227881 2.73822182 1.46998513 1.87094495 0 1 C0 0.67 0 0.34 0 0 Z " fill="#E9E8E7" transform="translate(467,582)"/>
<path d="M0 0 C1.32 0 2.64 0 4 0 C5.60725635 3.21451269 5.05748185 6.43612536 5 10 C3.35 10 1.7 10 0 10 C0 6.7 0 3.4 0 0 Z " fill="#636464" transform="translate(597,448)"/>
<path d="M0 0 C4.62 0 9.24 0 14 0 C14 0.99 14 1.98 14 3 C9.71 3 5.42 3 1 3 C0.67 2.01 0.34 1.02 0 0 Z " fill="#5F5F5F" transform="translate(613,446)"/>
<path d="M0 0 C2.6855594 2.6855594 3.06049974 5.37621328 4 9 C1.69 9 -0.62 9 -3 9 C-2.44271087 5.65626525 -1.64826111 2.96687001 0 0 Z " fill="#F1F1F1" transform="translate(530,451)"/>
<path d="M0 0 C1.32 0 2.64 0 4 0 C4 3.3 4 6.6 4 10 C2.66666667 10 1.33333333 10 0 10 C0 6.7 0 3.4 0 0 Z " fill="#5D5F5F" transform="translate(662,446)"/>
<path d="M0 0 C0.804375 0.4640625 0.804375 0.4640625 1.625 0.9375 C4.3984957 2.17827439 7.00042837 2.5909675 10 3 C10 3.33 10 3.66 10 4 C8.35 4 6.7 4 5 4 C4.67 4.66 4.34 5.32 4 6 C3.01 6.33 2.02 6.66 1 7 C-0.32 5.68 -1.64 4.36 -3 3 C-2.01 2.01 -1.02 1.02 0 0 Z " fill="#707070" transform="translate(485,462)"/>
<path d="M0 0 C2 3 2 3 2 5 C2.99 4.67 3.98 4.34 5 4 C5 5.98 5 7.96 5 10 C3.0625 10.5625 3.0625 10.5625 1 11 C0 10 0 10 -0.09765625 7.71484375 C-0.08605469 6.79832031 -0.07445312 5.88179688 -0.0625 4.9375 C-0.05347656 4.01839844 -0.04445313 3.09929687 -0.03515625 2.15234375 C-0.02355469 1.44207031 -0.01195312 0.73179687 0 0 Z " fill="#67686A" transform="translate(327,452)"/>
<path d="M0 0 C3 2 3 2 3.6875 5.125 C3.790625 6.07375 3.89375 7.0225 4 8 C1.69 8 -0.62 8 -3 8 C-2.01 5.36 -1.02 2.72 0 0 Z " fill="#F2F2F3" transform="translate(643,452)"/>
<path d="M0 0 C3.3 0 6.6 0 10 0 C10 0.99 10 1.98 10 3 C6.37 3 2.74 3 -1 3 C-0.67 2.01 -0.34 1.02 0 0 Z " fill="#646363" transform="translate(615,456)"/>
<path d="M0 0 C2.3125 0.1875 2.3125 0.1875 5 1 C6.8125 3.5625 6.8125 3.5625 8 6 C5.125 6.1875 5.125 6.1875 2 6 C0 3 0 3 0 0 Z " fill="#606263" transform="translate(595,464)"/>
<path d="M0 0 C3.3 0 6.6 0 10 0 C10 0.99 10 1.98 10 3 C6.37 3 2.74 3 -1 3 C-0.67 2.01 -0.34 1.02 0 0 Z " fill="#606060" transform="translate(435,456)"/>
<path d="M0 0 C0.33 0.66 0.66 1.32 1 2 C1.99 2.33 2.98 2.66 4 3 C1.69 4.98 -0.62 6.96 -3 9 C-3.33 8.01 -3.66 7.02 -4 6 C-2.84338843 3.79192337 -1.77322566 1.77322566 0 0 Z " fill="#294780" transform="translate(775,760)"/>
<path d="M0 0 C1.98 0 3.96 0 6 0 C6.66 1.32 7.32 2.64 8 4 C4.37 3.67 0.74 3.34 -3 3 C-2.01 2.67 -1.02 2.34 0 2 C0 1.34 0 0.68 0 0 Z " fill="#65686A" transform="translate(315,446)"/>
<path d="M0 0 C1.32 0 2.64 0 4 0 C4.12375 0.639375 4.2475 1.27875 4.375 1.9375 C4.684375 2.9584375 4.684375 2.9584375 5 4 C5.66 4.33 6.32 4.66 7 5 C3.7 5 0.4 5 -3 5 C-2.34 4.67 -1.68 4.34 -1 4 C-0.34786708 1.97536745 -0.34786708 1.97536745 0 0 Z " fill="#797B7D" transform="translate(338,465)"/>
<path d="M0 0 C0.66 0.99 1.32 1.98 2 3 C1.67 3.66 1.34 4.32 1 5 C0.34 5 -0.32 5 -1 5 C-1 5.66 -1 6.32 -1 7 C-2.65 7.66 -4.3 8.32 -6 9 C-4.16172132 5.84866512 -2.24027294 2.88035092 0 0 Z " fill="#1B407B" transform="translate(781,729)"/>
<path d="M0 0 C2.475 0.99 2.475 0.99 5 2 C5 3.32 5 4.64 5 6 C3.68 6 2.36 6 1 6 C0.67 4.02 0.34 2.04 0 0 Z " fill="#747575" transform="translate(496,445)"/>
<path d="M0 0 C2 2 2 2 2 5 C1.34 5 0.68 5 0 5 C-0.144375 5.763125 -0.28875 6.52625 -0.4375 7.3125 C-1 10 -1 10 -2 13 C-2.66 13 -3.32 13 -4 13 C-3.52140759 11.39566191 -3.04210442 9.79153584 -2.5625 8.1875 C-2.29566406 7.29417969 -2.02882813 6.40085937 -1.75390625 5.48046875 C-1.19612127 3.64526945 -0.60655425 1.81966274 0 0 Z " fill="#25477C" transform="translate(837,631)"/>
<path d="M0 0 C2.9375 0.8125 2.9375 0.8125 6 2 C6.33 2.99 6.66 3.98 7 5 C5.02 5 3.04 5 1 5 C0.67 3.35 0.34 1.7 0 0 Z " fill="#67686A" transform="translate(467,465)"/>
<path d="M0 0 C1.32 0.66 2.64 1.32 4 2 C2.66666667 3.33333333 1.33333333 4.66666667 0 6 C-0.33 5.67 -0.66 5.34 -1 5 C-2.34747084 4.76924918 -3.70377565 4.58846937 -5.0625 4.4375 C-6.361875 4.293125 -7.66125 4.14875 -9 4 C-9 3.67 -9 3.34 -9 3 C-4.545 2.505 -4.545 2.505 0 2 C0 1.34 0 0.68 0 0 Z " fill="#858585" transform="translate(596,446)"/>
<path d="M0 0 C2 4 2 4 1.125 7.75 C0.75375 8.8225 0.3825 9.895 0 11 C-0.66 10.67 -1.32 10.34 -2 10 C-1.34 6.7 -0.68 3.4 0 0 Z " fill="#27497A" transform="translate(847,600)"/>
<path d="M0 0 C0.66 0.66 1.32 1.32 2 2 C1.7578125 4.1640625 1.7578125 4.1640625 1.125 6.625 C0.92132812 7.44226563 0.71765625 8.25953125 0.5078125 9.1015625 C0.34023438 9.72804688 0.17265625 10.35453125 0 11 C-0.66 11 -1.32 11 -2 11 C-1.125 3.375 -1.125 3.375 0 0 Z " fill="#264779" transform="translate(850,589)"/>
<path d="M0 0 C0.66 0 1.32 0 2 0 C2.29296875 5.95703125 2.29296875 5.95703125 2 8 C1.01 8.99 0.02 9.98 -1 11 C-0.67 7.37 -0.34 3.74 0 0 Z " fill="#2B497B" transform="translate(854,567)"/>
<path d="M0 0 C2.97 0 5.94 0 9 0 C9 0.99 9 1.98 9 3 C5.625 3.1875 5.625 3.1875 2 3 C1.34 2.01 0.68 1.02 0 0 Z " fill="#585A5B" transform="translate(690,446)"/>
<path d="M0 0 C1.12377697 3.30435084 0.89554742 5.0506862 -0.4375 8.25 C-0.72496094 8.95640625 -1.01242188 9.6628125 -1.30859375 10.390625 C-1.53675781 10.92171875 -1.76492187 11.4528125 -2 12 C-2.66 12 -3.32 12 -4 12 C-3.52309796 10.37433394 -3.04340334 8.74948689 -2.5625 7.125 C-2.29566406 6.22007812 -2.02882812 5.31515625 -1.75390625 4.3828125 C-1 2 -1 2 0 0 Z " fill="#294A7D" transform="translate(173,364)"/>
<path d="M0 0 C-2.77280706 3.08089673 -5.06326356 4.68775452 -9 6 C-8.6875 4.125 -8.6875 4.125 -8 2 C-4.77208445 -0.1519437 -3.71599191 -0.20086443 0 0 Z " fill="#24477B" transform="translate(318,218)"/>
<path d="M0 0 C0.33 0 0.66 0 1 0 C1.3125 2.25 1.3125 2.25 1 5 C-1.5 7.3125 -1.5 7.3125 -4 9 C-4 4.98525763 -2.33218233 3.18024863 0 0 Z " fill="#1D437A" transform="translate(799,705)"/>
<path d="M0 0 C2.31 0 4.62 0 7 0 C7 0.99 7 1.98 7 3 C4.69 3 2.38 3 0 3 C0 2.01 0 1.02 0 0 Z " fill="#5E5E5F" transform="translate(527,461)"/>
<path d="M0 0 C0.99 0.33 1.98 0.66 3 1 C1.35 2.98 -0.3 4.96 -2 7 C-2.99 6.67 -3.98 6.34 -5 6 C-3.35 4.02 -1.7 2.04 0 0 Z " fill="#214579" transform="translate(234,266)"/>
<path d="M0 0 C0.33 0 0.66 0 1 0 C0.75 3.375 0.75 3.375 0 7 C-2.0625 8.4375 -2.0625 8.4375 -4 9 C-2.80100302 5.9168649 -1.52299523 2.93720508 0 0 Z " fill="#1E437C" transform="translate(811,686)"/>
<path d="M0 0 C4.95 0.99 4.95 0.99 10 2 C9.01 2.99 8.02 3.98 7 5 C3.535 3.02 3.535 3.02 0 1 C0 0.67 0 0.34 0 0 Z " fill="#CFCECE" transform="translate(467,582)"/>
<path d="M0 0 C1.98 0 3.96 0 6 0 C6 0.99 6 1.98 6 3 C3.69 3 1.38 3 -1 3 C-0.67 2.01 -0.34 1.02 0 0 Z " fill="#666666" transform="translate(621,466)"/>
<path d="M0 0 C0.99 1.32 1.98 2.64 3 4 C2.34 4.66 1.68 5.32 1 6 C0.01 6 -0.98 6 -2 6 C-2.33 4.68 -2.66 3.36 -3 2 C-2.01 1.34 -1.02 0.68 0 0 Z " fill="#65696C" transform="translate(345,463)"/>
<path d="M0 0 C0.33 0 0.66 0 1 0 C1 1.65 1 3.3 1 5 C-0.65 5.66 -2.3 6.32 -4 7 C-2.79618552 4.50638429 -1.54571278 2.31856917 0 0 Z " fill="#1F457D" transform="translate(789,719)"/>
<path d="M0 0 C0.66 0.99 1.32 1.98 2 3 C0.35 4.32 -1.3 5.64 -3 7 C-3.33 6.01 -3.66 5.02 -4 4 C-2.68 2.68 -1.36 1.36 0 0 Z " fill="#284A7E" transform="translate(288,237)"/>
</svg>
